<?xml version="1.0" encoding="utf-8"?>
<svg id="svg2" viewBox="0 0 500 670" xmlns="http://www.w3.org/2000/svg">
  <desc>Source: openclipart.org/detail/209545</desc>
  <defs/>
  <g id="SVGRepo_bgCarrier" stroke-width="0" transform="matrix(0.883632, 0, 0, 0.883632, 24.554251, 114.868469)" style=""/>
  <g id="SVGRepo_tracerCarrier" stroke-linecap="round" stroke-linejoin="round" transform="matrix(0.883632, 0, 0, 0.883632, 24.554251, 114.868469)" style=""/>
  <g id="SVGRepo_iconCarrier" transform="matrix(0.883632, 0, 0, 0.883632, 24.554251, 114.868469)" style="">
    <g transform="matrix(1, 0, 0, 1, 1.358284, -1.358283)">
      <g/>
    </g>
    <g id="g-1" stroke-width="0" transform="matrix(0.659591, 0, 0, 0.659591, 132.98204, 50.61982)" style=""/>
    <g id="g-2" stroke-linecap="round" stroke-linejoin="round" transform="matrix(0.659591, 0, 0, 0.659591, 132.98204, 50.61982)" style=""/>
    <g id="g-4" stroke-width="0" transform="matrix(-0.659591, 0, 0, -0.659591, 326.730103, 437.681122)" style=""/>
    <g id="g-5" stroke-linecap="round" stroke-linejoin="round" transform="matrix(-0.659591, 0, 0, -0.659591, 326.730103, 437.681122)" style=""/>
    <g id="g-7" stroke-width="0" transform="matrix(0.396953, 0.526773, -0.526772, 0.396952, 343.567566, 47.432568)" style=""/>
    <g id="g-8" stroke-linecap="round" stroke-linejoin="round" transform="matrix(0.396953, 0.526773, -0.526772, 0.396952, 343.567566, 47.432568)" style=""/>
    <g id="g-3" stroke-width="0" transform="matrix(1.131693, 0, 0, 1.131693, -28.663408, 93.785522)"/>
    <g id="g-6" stroke-linecap="round" stroke-linejoin="round" transform="matrix(1.131693, 0, 0, 1.131693, -28.663408, 93.785522)"/>
    <g id="g-9" transform="matrix(1.131693, 0, 0, 1.131693, -28.663408, 93.785522)">
      <g>
        <path d="M 171.373 62.473 C 171.451 62.633 171.527 62.794 171.617 62.95 C 171.711 63.112 171.815 63.264 171.918 63.417 L 253.5 204.735 C 254.84 207.056 257.316 208.485 259.995 208.485 C 262.675 208.485 265.151 207.056 266.491 204.735 L 363.225 37.206 C 365.296 33.619 364.067 29.032 360.48 26.96 C 329.935 9.323 295.25 0 260.176 0 C 224.896 0 190.088 9.309 159.516 26.919 C 157.791 27.913 156.532 29.551 156.016 31.473 C 155.5 33.395 155.769 35.444 156.764 37.167 L 171.373 62.473 Z M 259.995 185.986 L 188.49 62.122 C 233.277 39.14 286.797 39.15 331.501 62.15 L 259.995 185.986 Z M 260.176 15 C 290.132 15 319.788 22.355 346.41 36.331 L 339.011 49.146 C 289.668 23.494 230.409 23.483 180.982 49.117 L 173.584 36.302 C 200.247 22.345 230.025 15 260.176 15 Z"/>
        <circle cx="259.995" cy="131.926" r="7.499"/>
        <path d="M 295.371 75.125 C 293.589 68.473 289.323 62.913 283.359 59.469 C 279.442 57.207 274.989 56.011 270.484 56.011 C 261.293 56.011 252.731 60.951 248.139 68.904 C 244.695 74.868 243.78 81.816 245.562 88.468 C 247.344 95.12 251.61 100.68 257.574 104.124 C 261.491 106.386 265.944 107.582 270.449 107.582 C 279.64 107.582 288.202 102.642 292.794 94.689 C 296.238 88.726 297.154 81.778 295.371 75.125 Z M 279.804 87.189 C 277.883 90.516 274.299 92.583 270.449 92.583 C 268.574 92.583 266.715 92.083 265.075 91.135 C 262.581 89.695 260.797 87.369 260.051 84.588 C 259.306 81.806 259.689 78.9 261.129 76.406 C 263.05 73.079 266.634 71.012 270.484 71.012 C 272.359 71.012 274.218 71.512 275.858 72.46 C 278.352 73.9 280.136 76.226 280.882 79.007 C 281.628 81.789 281.245 84.694 279.804 87.189 Z"/>
        <path d="M 19.96 180.251 L 49.173 180.252 C 49.353 180.265 49.532 180.28 49.715 180.28 C 49.908 180.28 50.091 180.265 50.274 180.252 L 213.446 180.26 C 216.126 180.26 218.602 178.831 219.942 176.51 C 221.282 174.189 221.282 171.33 219.942 169.01 L 123.223 1.47 C 122.228 -0.253 120.59 -1.51 118.669 -2.025 C 116.749 -2.54 114.701 -2.271 112.978 -1.276 C 81.887 16.672 56.163 42.588 38.587 73.669 C 21.528 103.835 12.494 138.094 12.46 172.744 C 12.458 174.734 13.247 176.644 14.654 178.052 C 16.061 179.459 17.969 180.251 19.96 180.251 Z M 114.058 15.597 L 121.454 28.408 C 109.131 36.269 97.849 45.689 87.86 56.511 C 85.051 59.554 85.24 64.3 88.284 67.109 C 89.726 68.44 91.55 69.098 93.369 69.098 C 95.39 69.098 97.404 68.286 98.882 66.685 C 107.843 56.978 117.946 48.514 128.964 41.418 L 200.456 165.261 L 57.435 165.254 C 58.761 138.435 66.986 112.36 81.461 89.417 C 83.671 85.914 82.624 81.282 79.12 79.072 C 75.615 76.861 70.985 77.91 68.775 81.413 C 52.785 106.756 43.752 135.597 42.416 165.253 L 27.621 165.252 C 30.154 104.372 62.629 48.146 114.058 15.597 Z"/>
        <circle cx="140.558" cy="91.047" r="7.499"/>
        <circle cx="212.391" cy="82.559" r="7.499"/>
        <path d="M 185.265 346.252 L 266.858 204.944 C 268.198 202.623 268.198 199.764 266.858 197.444 C 265.519 195.123 263.043 193.694 260.363 193.694 L 66.91 193.685 C 64.921 193.685 63.013 194.475 61.606 195.881 C 60.2 197.288 59.409 199.195 59.409 201.184 C 59.408 237.084 68.989 272.319 87.118 303.081 C 104.713 332.937 129.865 357.891 159.856 375.245 C 161.008 375.911 162.305 376.253 163.612 376.253 C 164.261 376.253 164.912 376.169 165.55 375.999 C 167.473 375.485 169.113 374.228 170.108 372.504 L 184.785 347.085 C 184.859 346.972 184.942 346.868 185.011 346.749 C 185.105 346.586 185.185 346.419 185.265 346.252 Z M 175.856 332.551 C 133.56 305.256 106.808 258.901 104.375 208.686 L 247.373 208.693 L 175.856 332.551 Z M 160.947 358.37 C 109.491 325.736 77.035 269.499 74.561 208.685 L 89.357 208.686 C 91.813 264.243 121.433 315.569 168.346 345.556 L 160.947 358.37 Z"/>
        <circle cx="202.376" cy="246.052" r="7.5"/>
        <path d="M 348.617 340.156 C 348.539 339.996 348.463 339.834 348.373 339.678 C 348.279 339.515 348.175 339.363 348.071 339.211 L 266.49 197.883 C 265.15 195.561 262.674 194.133 259.995 194.133 C 257.315 194.133 254.839 195.561 253.499 197.883 L 156.765 365.424 C 154.694 369.011 155.923 373.598 159.51 375.671 C 190.053 393.308 224.738 402.631 259.815 402.633 C 295.097 402.633 329.904 393.324 360.475 375.712 C 362.2 374.718 363.459 373.08 363.975 371.158 C 364.491 369.236 364.222 367.186 363.227 365.463 L 348.617 340.156 Z M 259.823 387.632 C 229.857 387.632 200.201 380.274 173.581 366.299 L 180.976 353.491 C 200.667 363.747 221.939 369.987 244.328 372.029 C 244.559 372.049 244.79 372.06 245.018 372.06 C 248.852 372.06 252.123 369.134 252.478 365.24 C 252.854 361.115 249.815 357.466 245.69 357.09 C 225.482 355.246 206.275 349.663 188.482 340.492 L 259.995 216.634 L 331.508 340.519 C 313.706 349.672 294.509 355.245 274.326 357.09 C 270.201 357.466 267.162 361.116 267.539 365.241 C 267.894 369.135 271.164 372.06 274.999 372.06 C 275.228 372.06 275.458 372.049 275.69 372.028 C 298.052 369.986 319.314 363.757 339.013 353.521 L 346.406 366.33 C 319.743 380.286 289.969 387.632 259.823 387.632 Z"/>
        <circle cx="282.006" cy="329.469" r="7.499"/>
        <path d="M 458.419 195.903 C 457.012 194.495 455.104 193.704 453.113 193.704 L 423.9 193.703 C 423.72 193.69 423.541 193.675 423.358 193.675 C 423.165 193.675 422.982 193.69 422.799 193.703 L 259.627 193.695 C 256.947 193.695 254.471 195.124 253.131 197.445 C 251.791 199.766 251.791 202.625 253.131 204.945 L 349.849 372.486 C 350.844 374.209 352.482 375.466 354.403 375.981 C 355.042 376.152 355.694 376.237 356.344 376.237 C 357.649 376.237 358.944 375.896 360.094 375.233 C 391.185 357.284 416.909 331.369 434.485 300.288 C 451.544 270.122 460.578 235.863 460.612 201.213 C 460.615 199.221 459.826 197.312 458.419 195.903 Z M 359.015 358.358 L 351.624 345.555 C 380.93 326.831 404.24 299.096 417.698 266.734 C 419.289 262.909 417.478 258.52 413.653 256.929 C 409.829 255.339 405.439 257.15 403.848 260.974 C 391.648 290.309 370.588 315.471 344.114 332.547 L 272.616 208.694 L 415.649 208.701 C 415.229 217.036 414.137 225.389 412.372 233.621 C 411.504 237.671 414.083 241.658 418.134 242.526 C 418.664 242.639 419.193 242.694 419.713 242.694 C 423.174 242.694 426.285 240.285 427.039 236.764 C 429.025 227.498 430.229 218.089 430.66 208.701 L 445.452 208.702 C 442.919 269.583 410.444 325.809 359.015 358.358 Z"/>
        <circle cx="324.832" cy="252.957" r="7.499"/>
        <circle cx="379.091" cy="353.074" r="7.499"/>
        <circle cx="353.685" cy="116.307" r="7.5"/>
        <path d="M 334.725 56.366 L 253.132 197.674 C 251.792 199.995 251.792 202.854 253.132 205.174 C 254.471 207.495 256.947 208.924 259.627 208.924 L 453.081 208.933 C 455.07 208.933 456.978 208.143 458.385 206.737 C 459.791 205.33 460.582 203.423 460.582 201.434 C 460.583 165.534 451.002 130.299 432.873 99.537 C 415.278 69.681 390.126 44.727 360.135 27.373 C 358.411 26.376 356.362 26.106 354.441 26.619 C 352.518 27.133 350.878 28.39 349.883 30.114 L 335.273 55.416 C 335.173 55.564 335.071 55.711 334.98 55.868 C 334.885 56.032 334.805 56.199 334.725 56.366 Z M 344.134 70.067 C 386.43 97.362 413.182 143.717 415.615 193.932 L 272.617 193.925 L 344.134 70.067 Z M 359.043 44.248 C 410.499 76.882 442.955 133.119 445.429 193.933 L 430.633 193.932 C 428.177 138.375 398.557 87.049 351.644 57.062 L 359.043 44.248 Z"/>
        <path d="M 104.807 152.634 C 109.311 152.634 113.763 151.439 117.68 149.177 C 123.644 145.734 127.91 140.175 129.693 133.522 C 131.476 126.87 130.561 119.922 127.118 113.958 C 122.526 106.004 113.964 101.062 104.772 101.062 C 100.268 101.062 95.816 102.257 91.899 104.519 C 85.935 107.962 81.668 113.521 79.885 120.174 C 78.102 126.826 79.017 133.774 82.46 139.738 C 87.052 147.693 95.615 152.634 104.807 152.634 Z M 94.374 124.058 C 95.12 121.276 96.904 118.951 99.398 117.511 C 101.038 116.564 102.897 116.064 104.772 116.064 C 108.622 116.064 112.207 118.131 114.127 121.459 C 115.567 123.953 115.949 126.859 115.204 129.641 C 114.458 132.423 112.674 134.748 110.18 136.188 C 108.54 137.135 106.681 137.635 104.806 137.635 C 100.956 137.635 97.371 135.568 95.45 132.24 C 94.011 129.745 93.629 126.839 94.374 124.058 Z"/>
        <path d="M 138.119 279.134 C 142.989 284.004 149.463 286.686 156.35 286.687 C 170.566 286.687 182.132 275.122 182.133 260.906 C 182.133 254.019 179.452 247.545 174.583 242.675 C 169.713 237.805 163.239 235.123 156.351 235.123 C 142.135 235.123 130.569 246.688 130.569 260.904 C 130.568 267.79 133.25 274.264 138.119 279.134 Z M 156.352 250.122 C 159.232 250.122 161.94 251.244 163.977 253.28 C 166.013 255.317 167.135 258.024 167.134 260.905 C 167.134 266.85 162.297 271.687 156.352 271.687 L 156.351 279.187 L 156.351 271.687 C 153.471 271.687 150.763 270.565 148.727 268.528 C 146.69 266.491 145.569 263.783 145.569 260.903 C 145.569 254.958 150.406 250.122 156.352 250.122 Z"/>
        <path d="M 275.811 304.821 C 279.255 298.857 280.17 291.909 278.388 285.257 C 276.606 278.605 272.34 273.045 266.376 269.601 C 262.459 267.339 258.006 266.143 253.501 266.143 C 244.31 266.143 235.748 271.083 231.156 279.036 C 227.712 284.999 226.797 291.948 228.579 298.6 C 230.361 305.252 234.627 310.812 240.591 314.256 C 244.508 316.518 248.961 317.714 253.466 317.714 C 262.656 317.714 271.218 312.774 275.811 304.821 Z M 262.82 297.321 C 260.899 300.648 257.315 302.715 253.465 302.715 C 251.59 302.715 249.731 302.215 248.091 301.267 C 245.597 299.827 243.813 297.501 243.067 294.72 C 242.322 291.938 242.705 289.032 244.145 286.538 C 246.066 283.211 249.65 281.144 253.5 281.144 C 255.375 281.144 257.234 281.644 258.874 282.592 C 261.368 284.032 263.152 286.358 263.898 289.139 C 264.644 291.92 264.261 294.826 262.82 297.321 Z"/>
        <path d="M 371.252 222.337 C 366.748 222.337 362.296 223.532 358.379 225.794 C 352.415 229.237 348.149 234.796 346.366 241.449 C 344.583 248.101 345.498 255.049 348.941 261.013 C 353.533 268.967 362.095 273.909 371.287 273.909 C 375.791 273.909 380.243 272.714 384.16 270.452 C 390.124 267.009 394.391 261.45 396.174 254.797 C 397.957 248.145 397.042 241.197 393.599 235.233 C 389.007 227.278 380.444 222.337 371.252 222.337 Z M 381.685 250.913 C 380.939 253.695 379.155 256.02 376.661 257.46 C 375.021 258.407 373.162 258.907 371.287 258.907 C 367.437 258.907 363.852 256.84 361.932 253.512 C 360.492 251.018 360.11 248.112 360.855 245.33 C 361.601 242.548 363.385 240.223 365.879 238.783 C 367.519 237.836 369.378 237.336 371.253 237.336 C 375.103 237.336 378.688 239.403 380.609 242.731 C 382.048 245.226 382.43 248.132 381.685 250.913 Z"/>
        <path d="M 355.244 141.388 C 350.374 136.518 343.9 133.836 337.012 133.835 C 322.796 133.835 311.23 145.4 311.23 159.616 C 311.23 166.503 313.911 172.977 318.78 177.847 C 323.65 182.717 330.124 185.399 337.011 185.399 C 351.227 185.399 362.793 173.834 362.794 159.618 C 362.795 152.732 360.113 146.258 355.244 141.388 Z M 337.012 170.4 L 337.011 177.9 L 337.012 170.4 C 334.131 170.4 331.424 169.278 329.387 167.242 C 327.351 165.205 326.229 162.498 326.23 159.617 C 326.23 153.672 331.067 148.835 337.013 148.835 C 339.893 148.835 342.601 149.957 344.637 151.994 C 346.674 154.031 347.795 156.739 347.795 159.619 C 347.794 165.564 342.957 170.4 337.012 170.4 Z"/>
      </g>
    </g>
  </g>
</svg>